<svg xmlns="http://www.w3.org/2000/svg" viewBox="0 0 64 64">
  <rect width="64" height="64" rx="14" fill="#eefaff"/>
  <path d="M11 33c8-16 21-23 42-22-7 6-11 13-12 22 1 9 5 16 12 22-21 1-34-6-42-22Z" fill="#2563eb"/>
  <path d="M22 33c4-8 11-12 22-11-4 3-6 7-6 11 0 5 2 8 6 11-11 1-18-3-22-11Z" fill="#05a9bb"/>
  <path d="M28 33c3-4 7-6 13-5-2 1-3 3-3 5s1 4 3 5c-6 1-10-1-13-5Z" fill="#ffffff"/>
  <circle cx="44" cy="19" r="3" fill="#68e24b"/>
  <circle cx="48" cy="45" r="3" fill="#f3b83f"/>
</svg>
